<COLLADA xmlns="http://www.collada.org/2005/11/COLLADASchema" version="1.4.1">
  <asset>
    <created>2025-11-11T14:36:21.786226</created>
    <modified>2025-11-11T14:36:21.786228</modified>
    <up_axis>Y_UP</up_axis>
  </asset>
  <library_effects>
    <effect id="1964b9d2c7b542afb449bc9ef1d330f8" name="1964b9d2c7b542afb449bc9ef1d330f8">
      <profile_COMMON>
        <technique sid="common">
          <phong>
            <emission>
              <color>0.0 0.0 0.0 1.0</color>
            </emission>
            <ambient>
              <color>0.0 0.0 0.0 1.0</color>
            </ambient>
            <diffuse>
              <color>1.0 1.0 1.0 1.0</color>
            </diffuse>
            <specular>
              <color>0.0 0.0 0.0 1.0</color>
            </specular>
            <shininess>
              <float>0.0</float>
            </shininess>
            <reflective>
              <color>0.0 0.0 0.0 1.0</color>
            </reflective>
            <reflectivity>
              <float>0.0</float>
            </reflectivity>
            <transparent>
              <color>0.0 0.0 0.0 1.0</color>
            </transparent>
            <transparency>
              <float>1.0</float>
            </transparency>
          </phong>
        </technique>
        <extra>
          <technique profile="GOOGLEEARTH">
            <double_sided>0</double_sided>
          </technique>
        </extra>
      </profile_COMMON>
    </effect>
  </library_effects>
  <library_geometries>
    <geometry id="bbf2c12b379c4b408cf9da1fe60316d3" name="01179845c6074e158a28f20594bb31f2">
      <mesh>
        <source id="verts-array">
          <float_array count="1512" id="verts-array-array">10 10 0 10 10 3 10 30 0 10 30 3 30 10 0 30 10 3 30 30 0 30 30 3 50 10 0 50 10 3 50 30 0 50 30 3 70 10 0 70 10 3 70 30 0 70 30 3 90 10 0 90 10 3 90 30 0 90 30 3 110 10 0 110 10 3 110 30 0 110 30 3 30 30 0 30 30 3 30 50 0 30 50 3 50 30 0 50 30 3 50 50 0 50 50 3 70 30 0 70 30 3 70 50 0 70 50 3 90 30 0 90 30 3 90 50 0 90 50 3 10 50 0 10 50 3 10 70 0 10 70 3 30 50 0 30 50 3 30 70 0 30 70 3 50 50 0 50 50 3 50 70 0 50 70 3 70 50 0 70 50 3 70 70 0 70 70 3 90 50 0 90 50 3 90 70 0 90 70 3 110 50 0 110 50 3 110 70 0 110 70 3 30 70 0 30 70 3 30 90 0 30 90 3 50 70 0 50 70 3 50 90 0 50 90 3 70 70 0 70 70 3 70 90 0 70 90 3 90 70 0 90 70 3 90 90 0 90 90 3 10 90 0 10 90 3 10 110 0 10 110 3 30 90 0 30 90 3 30 110 0 30 110 3 50 90 0 50 90 3 50 110 0 50 110 3 70 90 0 70 90 3 70 110 0 70 110 3 90 90 0 90 90 3 90 110 0 90 110 3 110 90 0 110 90 3 110 110 0 110 110 3 30 110 0 30 110 3 30 130 0 30 130 3 50 110 0 50 110 3 50 130 0 50 130 3 70 110 0 70 110 3 70 130 0 70 130 3 90 110 0 90 110 3 90 130 0 90 130 3 10 130 0 10 130 3 10 150 0 10 150 3 30 130 0 30 130 3 30 150 0 30 150 3 50 130 0 50 130 3 50 150 0 50 150 3 70 130 0 70 130 3 70 150 0 70 150 3 90 130 0 90 130 3 90 150 0 90 150 3 110 130 0 110 130 3 110 150 0 110 150 3 -10 -10 0 -10 -10 3 -10 10 0 -10 10 3 10 -10 0 10 -10 3 10 10 0 10 10 3 10 -10 0 10 -10 3 10 10 0 10 10 3 30 -10 0 30 -10 3 30 10 0 30 10 3 30 -10 0 30 -10 3 30 10 0 30 10 3 50 -10 0 50 -10 3 50 10 0 50 10 3 50 -10 0 50 -10 3 50 10 0 50 10 3 70 -10 0 70 -10 3 70 10 0 70 10 3 70 -10 0 70 -10 3 70 10 0 70 10 3 90 -10 0 90 -10 3 90 10 0 90 10 3 90 -10 0 90 -10 3 90 10 0 90 10 3 110 -10 0 110 -10 3 110 10 0 110 10 3 110 -10 0 110 -10 3 110 10 0 110 10 3 130 -10 0 130 -10 3 130 10 0 130 10 3 -10 10 0 -10 10 3 -10 30 0 -10 30 3 10 10 0 10 10 3 10 30 0 10 30 3 30 10 0 30 10 3 30 30 0 30 30 3 50 10 0 50 10 3 50 30 0 50 30 3 70 10 0 70 10 3 70 30 0 70 30 3 90 10 0 90 10 3 90 30 0 90 30 3 110 10 0 110 10 3 110 30 0 110 30 3 130 10 0 130 10 3 130 30 0 130 30 3 -10 30 0 -10 30 3 -10 50 0 -10 50 3 10 30 0 10 30 3 10 50 0 10 50 3 10 30 0 10 30 3 10 50 0 10 50 3 30 30 0 30 30 3 30 50 0 30 50 3 50 30 0 50 30 3 50 50 0 50 50 3 70 30 0 70 30 3 70 50 0 70 50 3 90 30 0 90 30 3 90 50 0 90 50 3 110 30 0 110 30 3 110 50 0 110 50 3 110 30 0 110 30 3 110 50 0 110 50 3 130 30 0 130 30 3 130 50 0 130 50 3 -10 50 0 -10 50 3 -10 70 0 -10 70 3 10 50 0 10 50 3 10 70 0 10 70 3 30 50 0 30 50 3 30 70 0 30 70 3 50 50 0 50 50 3 50 70 0 50 70 3 70 50 0 70 50 3 70 70 0 70 70 3 90 50 0 90 50 3 90 70 0 90 70 3 110 50 0 110 50 3 110 70 0 110 70 3 130 50 0 130 50 3 130 70 0 130 70 3 -10 70 0 -10 70 3 -10 90 0 -10 90 3 10 70 0 10 70 3 10 90 0 10 90 3 10 70 0 10 70 3 10 90 0 10 90 3 30 70 0 30 70 3 30 90 0 30 90 3 50 70 0 50 70 3 50 90 0 50 90 3 70 70 0 70 70 3 70 90 0 70 90 3 90 70 0 90 70 3 90 90 0 90 90 3 110 70 0 110 70 3 110 90 0 110 90 3 110 70 0 110 70 3 110 90 0 110 90 3 130 70 0 130 70 3 130 90 0 130 90 3 -10 90 0 -10 90 3 -10 110 0 -10 110 3 10 90 0 10 90 3 10 110 0 10 110 3 30 90 0 30 90 3 30 110 0 30 110 3 50 90 0 50 90 3 50 110 0 50 110 3 70 90 0 70 90 3 70 110 0 70 110 3 90 90 0 90 90 3 90 110 0 90 110 3 110 90 0 110 90 3 110 110 0 110 110 3 130 90 0 130 90 3 130 110 0 130 110 3 -10 110 0 -10 110 3 -10 130 0 -10 130 3 10 110 0 10 110 3 10 130 0 10 130 3 10 110 0 10 110 3 10 130 0 10 130 3 30 110 0 30 110 3 30 130 0 30 130 3 50 110 0 50 110 3 50 130 0 50 130 3 70 110 0 70 110 3 70 130 0 70 130 3 90 110 0 90 110 3 90 130 0 90 130 3 110 110 0 110 110 3 110 130 0 110 130 3 110 110 0 110 110 3 110 130 0 110 130 3 130 110 0 130 110 3 130 130 0 130 130 3 -10 130 0 -10 130 3 -10 150 0 -10 150 3 10 130 0 10 130 3 10 150 0 10 150 3 30 130 0 30 130 3 30 150 0 30 150 3 50 130 0 50 130 3 50 150 0 50 150 3 70 130 0 70 130 3 70 150 0 70 150 3 90 130 0 90 130 3 90 150 0 90 150 3 110 130 0 110 130 3 110 150 0 110 150 3 130 130 0 130 130 3 130 150 0 130 150 3 -10 150 0 -10 150 3 -10 170 0 -10 170 3 10 150 0 10 150 3 10 170 0 10 170 3 10 150 0 10 150 3 10 170 0 10 170 3 30 150 0 30 150 3 30 170 0 30 170 3 30 150 0 30 150 3 30 170 0 30 170 3 50 150 0 50 150 3 50 170 0 50 170 3 50 150 0 50 150 3 50 170 0 50 170 3 70 150 0 70 150 3 70 170 0 70 170 3 70 150 0 70 150 3 70 170 0 70 170 3 90 150 0 90 150 3 90 170 0 90 170 3 90 150 0 90 150 3 90 170 0 90 170 3 110 150 0 110 150 3 110 170 0 110 170 3 110 150 0 110 150 3 110 170 0 110 170 3 130 150 0 130 150 3 130 170 0 130 170 3</float_array>
          <technique_common>
            <accessor count="504" source="#verts-array-array" stride="3">
              <param type="float" name="X"/>
              <param type="float" name="Y"/>
              <param type="float" name="Z"/>
            </accessor>
          </technique_common>
        </source>
        <source id="normals-array">
          <float_array count="1512" id="normals-array-array">-0.5773503 -0.5773503 -0.5773503 -0.5773503 -0.5773503 0.5773503 -0.5773503 0.5773503 -0.5773503 -0.5773503 0.5773503 0.5773503 0.5773503 -0.5773503 -0.5773503 0.5773503 -0.5773503 0.5773503 0.5773503 0.5773503 -0.5773503 0.5773503 0.5773503 0.5773503 -0.5773503 -0.5773503 -0.5773503 -0.5773503 -0.5773503 0.5773503 -0.5773503 0.5773503 -0.5773503 -0.5773503 0.5773503 0.5773503 0.5773503 -0.5773503 -0.5773503 0.5773503 -0.5773503 0.5773503 0.5773503 0.5773503 -0.5773503 0.5773503 0.5773503 0.5773503 -0.5773503 -0.5773503 -0.5773503 -0.5773503 -0.5773503 0.5773503 -0.5773503 0.5773503 -0.5773503 -0.5773503 0.5773503 0.5773503 0.5773503 -0.5773503 -0.5773503 0.5773503 -0.5773503 0.5773503 0.5773503 0.5773503 -0.5773503 0.5773503 0.5773503 0.5773503 -0.5773503 -0.5773503 -0.5773503 -0.5773503 -0.5773503 0.5773503 -0.5773503 0.5773503 -0.5773503 -0.5773503 0.5773503 0.5773503 0.5773503 -0.5773503 -0.5773503 0.5773503 -0.5773503 0.5773503 0.5773503 0.5773503 -0.5773503 0.5773503 0.5773503 0.5773503 -0.5773503 -0.5773503 -0.5773503 -0.5773503 -0.5773503 0.5773503 -0.5773503 0.5773503 -0.5773503 -0.5773503 0.5773503 0.5773503 0.5773503 -0.5773503 -0.5773503 0.5773503 -0.5773503 0.5773503 0.5773503 0.5773503 -0.5773503 0.5773503 0.5773503 0.5773503 -0.5773503 -0.5773503 -0.5773503 -0.5773503 -0.5773503 0.5773503 -0.5773503 0.5773503 -0.5773503 -0.5773503 0.5773503 0.5773503 0.5773503 -0.5773503 -0.5773503 0.5773503 -0.5773503 0.5773503 0.5773503 0.5773503 -0.5773503 0.5773503 0.5773503 0.5773503 -0.5773503 -0.5773503 -0.5773503 -0.5773503 -0.5773503 0.5773503 -0.5773503 0.5773503 -0.5773503 -0.5773503 0.5773503 0.5773503 0.5773503 -0.5773503 -0.5773503 0.5773503 -0.5773503 0.5773503 0.5773503 0.5773503 -0.5773503 0.5773503 0.5773503 0.5773503 -0.5773503 -0.5773503 -0.5773503 -0.5773503 -0.5773503 0.5773503 -0.5773503 0.5773503 -0.5773503 -0.5773503 0.5773503 0.5773503 0.5773503 -0.5773503 -0.5773503 0.5773503 -0.5773503 0.5773503 0.5773503 0.5773503 -0.5773503 0.5773503 0.5773503 0.5773503 -0.5773503 -0.5773503 -0.5773503 -0.5773503 -0.5773503 0.5773503 -0.5773503 0.5773503 -0.5773503 -0.5773503 0.5773503 0.5773503 0.5773503 -0.5773503 -0.5773503 0.5773503 -0.5773503 0.5773503 0.5773503 0.5773503 -0.5773503 0.5773503 0.5773503 0.5773503 -0.5773503 -0.5773503 -0.5773503 -0.5773503 -0.5773503 0.5773503 -0.5773503 0.5773503 -0.5773503 -0.5773503 0.5773503 0.5773503 0.5773503 -0.5773503 -0.5773503 0.5773503 -0.5773503 0.5773503 0.5773503 0.5773503 -0.5773503 0.5773503 0.5773503 0.5773503 -0.5773503 -0.5773503 -0.5773503 -0.5773503 -0.5773503 0.5773503 -0.5773503 0.5773503 -0.5773503 -0.5773503 0.5773503 0.5773503 0.5773503 -0.5773503 -0.5773503 0.5773503 -0.5773503 0.5773503 0.5773503 0.5773503 -0.5773503 0.5773503 0.5773503 0.5773503 -0.5773503 -0.5773503 -0.5773503 -0.5773503 -0.5773503 0.5773503 -0.5773503 0.5773503 -0.5773503 -0.5773503 0.5773503 0.5773503 0.5773503 -0.5773503 -0.5773503 0.5773503 -0.5773503 0.5773503 0.5773503 0.5773503 -0.5773503 0.5773503 0.5773503 0.5773503 -0.5773503 -0.5773503 -0.5773503 -0.5773503 -0.5773503 0.5773503 -0.5773503 0.5773503 -0.5773503 -0.5773503 0.5773503 0.5773503 0.5773503 -0.5773503 -0.5773503 0.5773503 -0.5773503 0.5773503 0.5773503 0.5773503 -0.5773503 0.5773503 0.5773503 0.5773503 -0.5773503 -0.5773503 -0.5773503 -0.5773503 -0.5773503 0.5773503 -0.5773503 0.5773503 -0.5773503 -0.5773503 0.5773503 0.5773503 0.5773503 -0.5773503 -0.5773503 0.5773503 -0.5773503 0.5773503 0.5773503 0.5773503 -0.5773503 0.5773503 0.5773503 0.5773503 -0.5773503 -0.5773503 -0.5773503 -0.5773503 -0.5773503 0.5773503 -0.5773503 0.5773503 -0.5773503 -0.5773503 0.5773503 0.5773503 0.5773503 -0.5773503 -0.5773503 0.5773503 -0.5773503 0.5773503 0.5773503 0.5773503 -0.5773503 0.5773503 0.5773503 0.5773503 -0.5773503 -0.5773503 -0.5773503 -0.5773503 -0.5773503 0.5773503 -0.5773503 0.5773503 -0.5773503 -0.5773503 0.5773503 0.5773503 0.5773503 -0.5773503 -0.5773503 0.5773503 -0.5773503 0.5773503 0.5773503 0.5773503 -0.5773503 0.5773503 0.5773503 0.5773503 -0.5773503 -0.5773503 -0.5773503 -0.5773503 -0.5773503 0.5773503 -0.5773503 0.5773503 -0.5773503 -0.5773503 0.5773503 0.5773503 0.5773503 -0.5773503 -0.5773503 0.5773503 -0.5773503 0.5773503 0.5773503 0.5773503 -0.5773503 0.5773503 0.5773503 0.5773503 -0.5773503 -0.5773503 -0.5773503 -0.5773503 -0.5773503 0.5773503 -0.5773503 0.5773503 -0.5773503 -0.5773503 0.5773503 0.5773503 0.5773503 -0.5773503 -0.5773503 0.5773503 -0.5773503 0.5773503 0.5773503 0.5773503 -0.5773503 0.5773503 0.5773503 0.5773503 -0.5773503 -0.5773503 -0.5773503 -0.5773503 -0.5773503 0.5773503 -0.5773503 0.5773503 -0.5773503 -0.5773503 0.5773503 0.5773503 0.5773503 -0.5773503 -0.5773503 0.5773503 -0.5773503 0.5773503 0.5773503 0.5773503 -0.5773503 0.5773503 0.5773503 0.5773503 -0.5773503 -0.5773503 -0.5773503 -0.5773503 -0.5773503 0.5773503 -0.5773503 0.5773503 -0.5773503 -0.5773503 0.5773503 0.5773503 0.5773503 -0.5773503 -0.5773503 0.5773503 -0.5773503 0.5773503 0.5773503 0.5773503 -0.5773503 0.5773503 0.5773503 0.5773503 -0.5773503 -0.5773503 -0.5773503 -0.5773503 -0.5773503 0.5773503 -0.5773503 0.5773503 -0.5773503 -0.5773503 0.5773503 0.5773503 0.5773503 -0.5773503 -0.5773503 0.5773503 -0.5773503 0.5773503 0.5773503 0.5773503 -0.5773503 0.5773503 0.5773503 0.5773503 -0.5773503 -0.5773503 -0.5773503 -0.5773503 -0.5773503 0.5773503 -0.5773503 0.5773503 -0.5773503 -0.5773503 0.5773503 0.5773503 0.5773503 -0.5773503 -0.5773503 0.5773503 -0.5773503 0.5773503 0.5773503 0.5773503 -0.5773503 0.5773503 0.5773503 0.5773503 -0.5773503 -0.5773503 -0.5773503 -0.5773503 -0.5773503 0.5773503 -0.5773503 0.5773503 -0.5773503 -0.5773503 0.5773503 0.5773503 0.5773503 -0.5773503 -0.5773503 0.5773503 -0.5773503 0.5773503 0.5773503 0.5773503 -0.5773503 0.5773503 0.5773503 0.5773503 -0.5773503 -0.5773503 -0.5773503 -0.5773503 -0.5773503 0.5773503 -0.5773503 0.5773503 -0.5773503 -0.5773503 0.5773503 0.5773503 0.5773503 -0.5773503 -0.5773503 0.5773503 -0.5773503 0.5773503 0.5773503 0.5773503 -0.5773503 0.5773503 0.5773503 0.5773503 -0.5773503 -0.5773503 -0.5773503 -0.5773503 -0.5773503 0.5773503 -0.5773503 0.5773503 -0.5773503 -0.5773503 0.5773503 0.5773503 0.5773503 -0.5773503 -0.5773503 0.5773503 -0.5773503 0.5773503 0.5773503 0.5773503 -0.5773503 0.5773503 0.5773503 0.5773503 -0.5773503 -0.5773503 -0.5773503 -0.5773503 -0.5773503 0.5773503 -0.5773503 0.5773503 -0.5773503 -0.5773503 0.5773503 0.5773503 0.5773503 -0.5773503 -0.5773503 0.5773503 -0.5773503 0.5773503 0.5773503 0.5773503 -0.5773503 0.5773503 0.5773503 0.5773503 -0.5773503 -0.5773503 -0.5773503 -0.5773503 -0.5773503 0.5773503 -0.5773503 0.5773503 -0.5773503 -0.5773503 0.5773503 0.5773503 0.5773503 -0.5773503 -0.5773503 0.5773503 -0.5773503 0.5773503 0.5773503 0.5773503 -0.5773503 0.5773503 0.5773503 0.5773503 -0.5773503 -0.5773503 -0.5773503 -0.5773503 -0.5773503 0.5773503 -0.5773503 0.5773503 -0.5773503 -0.5773503 0.5773503 0.5773503 0.5773503 -0.5773503 -0.5773503 0.5773503 -0.5773503 0.5773503 0.5773503 0.5773503 -0.5773503 0.5773503 0.5773503 0.5773503 -0.5773503 -0.5773503 -0.5773503 -0.5773503 -0.5773503 0.5773503 -0.5773503 0.5773503 -0.5773503 -0.5773503 0.5773503 0.5773503 0.5773503 -0.5773503 -0.5773503 0.5773503 -0.5773503 0.5773503 0.5773503 0.5773503 -0.5773503 0.5773503 0.5773503 0.5773503 -0.5773503 -0.5773503 -0.5773503 -0.5773503 -0.5773503 0.5773503 -0.5773503 0.5773503 -0.5773503 -0.5773503 0.5773503 0.5773503 0.5773503 -0.5773503 -0.5773503 0.5773503 -0.5773503 0.5773503 0.5773503 0.5773503 -0.5773503 0.5773503 0.5773503 0.5773503 -0.5773503 -0.5773503 -0.5773503 -0.5773503 -0.5773503 0.5773503 -0.5773503 0.5773503 -0.5773503 -0.5773503 0.5773503 0.5773503 0.5773503 -0.5773503 -0.5773503 0.5773503 -0.5773503 0.5773503 0.5773503 0.5773503 -0.5773503 0.5773503 0.5773503 0.5773503 -0.5773503 -0.5773503 -0.5773503 -0.5773503 -0.5773503 0.5773503 -0.5773503 0.5773503 -0.5773503 -0.5773503 0.5773503 0.5773503 0.5773503 -0.5773503 -0.5773503 0.5773503 -0.5773503 0.5773503 0.5773503 0.5773503 -0.5773503 0.5773503 0.5773503 0.5773503 -0.5773503 -0.5773503 -0.5773503 -0.5773503 -0.5773503 0.5773503 -0.5773503 0.5773503 -0.5773503 -0.5773503 0.5773503 0.5773503 0.5773503 -0.5773503 -0.5773503 0.5773503 -0.5773503 0.5773503 0.5773503 0.5773503 -0.5773503 0.5773503 0.5773503 0.5773503 -0.5773503 -0.5773503 -0.5773503 -0.5773503 -0.5773503 0.5773503 -0.5773503 0.5773503 -0.5773503 -0.5773503 0.5773503 0.5773503 0.5773503 -0.5773503 -0.5773503 0.5773503 -0.5773503 0.5773503 0.5773503 0.5773503 -0.5773503 0.5773503 0.5773503 0.5773503 -0.5773503 -0.5773503 -0.5773503 -0.5773503 -0.5773503 0.5773503 -0.5773503 0.5773503 -0.5773503 -0.5773503 0.5773503 0.5773503 0.5773503 -0.5773503 -0.5773503 0.5773503 -0.5773503 0.5773503 0.5773503 0.5773503 -0.5773503 0.5773503 0.5773503 0.5773503 -0.5773503 -0.5773503 -0.5773503 -0.5773503 -0.5773503 0.5773503 -0.5773503 0.5773503 -0.5773503 -0.5773503 0.5773503 0.5773503 0.5773503 -0.5773503 -0.5773503 0.5773503 -0.5773503 0.5773503 0.5773503 0.5773503 -0.5773503 0.5773503 0.5773503 0.5773503 -0.5773503 -0.5773503 -0.5773503 -0.5773503 -0.5773503 0.5773503 -0.5773503 0.5773503 -0.5773503 -0.5773503 0.5773503 0.5773503 0.5773503 -0.5773503 -0.5773503 0.5773503 -0.5773503 0.5773503 0.5773503 0.5773503 -0.5773503 0.5773503 0.5773503 0.5773503 -0.5773503 -0.5773503 -0.5773503 -0.5773503 -0.5773503 0.5773503 -0.5773503 0.5773503 -0.5773503 -0.5773503 0.5773503 0.5773503 0.5773503 -0.5773503 -0.5773503 0.5773503 -0.5773503 0.5773503 0.5773503 0.5773503 -0.5773503 0.5773503 0.5773503 0.5773503 -0.5773503 -0.5773503 -0.5773503 -0.5773503 -0.5773503 0.5773503 -0.5773503 0.5773503 -0.5773503 -0.5773503 0.5773503 0.5773503 0.5773503 -0.5773503 -0.5773503 0.5773503 -0.5773503 0.5773503 0.5773503 0.5773503 -0.5773503 0.5773503 0.5773503 0.5773503 -0.5773503 -0.5773503 -0.5773503 -0.5773503 -0.5773503 0.5773503 -0.5773503 0.5773503 -0.5773503 -0.5773503 0.5773503 0.5773503 0.5773503 -0.5773503 -0.5773503 0.5773503 -0.5773503 0.5773503 0.5773503 0.5773503 -0.5773503 0.5773503 0.5773503 0.5773503 -0.5773503 -0.5773503 -0.5773503 -0.5773503 -0.5773503 0.5773503 -0.5773503 0.5773503 -0.5773503 -0.5773503 0.5773503 0.5773503 0.5773503 -0.5773503 -0.5773503 0.5773503 -0.5773503 0.5773503 0.5773503 0.5773503 -0.5773503 0.5773503 0.5773503 0.5773503 -0.5773503 -0.5773503 -0.5773503 -0.5773503 -0.5773503 0.5773503 -0.5773503 0.5773503 -0.5773503 -0.5773503 0.5773503 0.5773503 0.5773503 -0.5773503 -0.5773503 0.5773503 -0.5773503 0.5773503 0.5773503 0.5773503 -0.5773503 0.5773503 0.5773503 0.5773503 -0.5773503 -0.5773503 -0.5773503 -0.5773503 -0.5773503 0.5773503 -0.5773503 0.5773503 -0.5773503 -0.5773503 0.5773503 0.5773503 0.5773503 -0.5773503 -0.5773503 0.5773503 -0.5773503 0.5773503 0.5773503 0.5773503 -0.5773503 0.5773503 0.5773503 0.5773503 -0.5773503 -0.5773503 -0.5773503 -0.5773503 -0.5773503 0.5773503 -0.5773503 0.5773503 -0.5773503 -0.5773503 0.5773503 0.5773503 0.5773503 -0.5773503 -0.5773503 0.5773503 -0.5773503 0.5773503 0.5773503 0.5773503 -0.5773503 0.5773503 0.5773503 0.5773503 -0.5773503 -0.5773503 -0.5773503 -0.5773503 -0.5773503 0.5773503 -0.5773503 0.5773503 -0.5773503 -0.5773503 0.5773503 0.5773503 0.5773503 -0.5773503 -0.5773503 0.5773503 -0.5773503 0.5773503 0.5773503 0.5773503 -0.5773503 0.5773503 0.5773503 0.5773503 -0.5773503 -0.5773503 -0.5773503 -0.5773503 -0.5773503 0.5773503 -0.5773503 0.5773503 -0.5773503 -0.5773503 0.5773503 0.5773503 0.5773503 -0.5773503 -0.5773503 0.5773503 -0.5773503 0.5773503 0.5773503 0.5773503 -0.5773503 0.5773503 0.5773503 0.5773503 -0.5773503 -0.5773503 -0.5773503 -0.5773503 -0.5773503 0.5773503 -0.5773503 0.5773503 -0.5773503 -0.5773503 0.5773503 0.5773503 0.5773503 -0.5773503 -0.5773503 0.5773503 -0.5773503 0.5773503 0.5773503 0.5773503 -0.5773503 0.5773503 0.5773503 0.5773503 -0.5773503 -0.5773503 -0.5773503 -0.5773503 -0.5773503 0.5773503 -0.5773503 0.5773503 -0.5773503 -0.5773503 0.5773503 0.5773503 0.5773503 -0.5773503 -0.5773503 0.5773503 -0.5773503 0.5773503 0.5773503 0.5773503 -0.5773503 0.5773503 0.5773503 0.5773503 -0.5773503 -0.5773503 -0.5773503 -0.5773503 -0.5773503 0.5773503 -0.5773503 0.5773503 -0.5773503 -0.5773503 0.5773503 0.5773503 0.5773503 -0.5773503 -0.5773503 0.5773503 -0.5773503 0.5773503 0.5773503 0.5773503 -0.5773503 0.5773503 0.5773503 0.5773503 -0.5773503 -0.5773503 -0.5773503 -0.5773503 -0.5773503 0.5773503 -0.5773503 0.5773503 -0.5773503 -0.5773503 0.5773503 0.5773503 0.5773503 -0.5773503 -0.5773503 0.5773503 -0.5773503 0.5773503 0.5773503 0.5773503 -0.5773503 0.5773503 0.5773503 0.5773503 -0.5773503 -0.5773503 -0.5773503 -0.5773503 -0.5773503 0.5773503 -0.5773503 0.5773503 -0.5773503 -0.5773503 0.5773503 0.5773503 0.5773503 -0.5773503 -0.5773503 0.5773503 -0.5773503 0.5773503 0.5773503 0.5773503 -0.5773503 0.5773503 0.5773503 0.5773503 -0.5773503 -0.5773503 -0.5773503 -0.5773503 -0.5773503 0.5773503 -0.5773503 0.5773503 -0.5773503 -0.5773503 0.5773503 0.5773503 0.5773503 -0.5773503 -0.5773503 0.5773503 -0.5773503 0.5773503 0.5773503 0.5773503 -0.5773503 0.5773503 0.5773503 0.5773503 -0.5773503 -0.5773503 -0.5773503 -0.5773503 -0.5773503 0.5773503 -0.5773503 0.5773503 -0.5773503 -0.5773503 0.5773503 0.5773503 0.5773503 -0.5773503 -0.5773503 0.5773503 -0.5773503 0.5773503 0.5773503 0.5773503 -0.5773503 0.5773503 0.5773503 0.5773503 -0.5773503 -0.5773503 -0.5773503 -0.5773503 -0.5773503 0.5773503 -0.5773503 0.5773503 -0.5773503 -0.5773503 0.5773503 0.5773503 0.5773503 -0.5773503 -0.5773503 0.5773503 -0.5773503 0.5773503 0.5773503 0.5773503 -0.5773503 0.5773503 0.5773503 0.5773503 -0.5773503 -0.5773503 -0.5773503 -0.5773503 -0.5773503 0.5773503 -0.5773503 0.5773503 -0.5773503 -0.5773503 0.5773503 0.5773503 0.5773503 -0.5773503 -0.5773503 0.5773503 -0.5773503 0.5773503 0.5773503 0.5773503 -0.5773503 0.5773503 0.5773503 0.5773503 -0.5773503 -0.5773503 -0.5773503 -0.5773503 -0.5773503 0.5773503 -0.5773503 0.5773503 -0.5773503 -0.5773503 0.5773503 0.5773503 0.5773503 -0.5773503 -0.5773503 0.5773503 -0.5773503 0.5773503 0.5773503 0.5773503 -0.5773503 0.5773503 0.5773503 0.5773503 -0.5773503 -0.5773503 -0.5773503 -0.5773503 -0.5773503 0.5773503 -0.5773503 0.5773503 -0.5773503 -0.5773503 0.5773503 0.5773503 0.5773503 -0.5773503 -0.5773503 0.5773503 -0.5773503 0.5773503 0.5773503 0.5773503 -0.5773503 0.5773503 0.5773503 0.5773503 -0.5773503 -0.5773503 -0.5773503 -0.5773503 -0.5773503 0.5773503 -0.5773503 0.5773503 -0.5773503 -0.5773503 0.5773503 0.5773503 0.5773503 -0.5773503 -0.5773503 0.5773503 -0.5773503 0.5773503 0.5773503 0.5773503 -0.5773503 0.5773503 0.5773503 0.5773503 -0.5773503 -0.5773503 -0.5773503 -0.5773503 -0.5773503 0.5773503 -0.5773503 0.5773503 -0.5773503 -0.5773503 0.5773503 0.5773503 0.5773503 -0.5773503 -0.5773503 0.5773503 -0.5773503 0.5773503 0.5773503 0.5773503 -0.5773503 0.5773503 0.5773503 0.5773503 -0.5773503 -0.5773503 -0.5773503 -0.5773503 -0.5773503 0.5773503 -0.5773503 0.5773503 -0.5773503 -0.5773503 0.5773503 0.5773503 0.5773503 -0.5773503 -0.5773503 0.5773503 -0.5773503 0.5773503 0.5773503 0.5773503 -0.5773503 0.5773503 0.5773503 0.5773503 -0.5773503 -0.5773503 -0.5773503 -0.5773503 -0.5773503 0.5773503 -0.5773503 0.5773503 -0.5773503 -0.5773503 0.5773503 0.5773503 0.5773503 -0.5773503 -0.5773503 0.5773503 -0.5773503 0.5773503 0.5773503 0.5773503 -0.5773503 0.5773503 0.5773503 0.5773503 -0.5773503 -0.5773503 -0.5773503 -0.5773503 -0.5773503 0.5773503 -0.5773503 0.5773503 -0.5773503 -0.5773503 0.5773503 0.5773503 0.5773503 -0.5773503 -0.5773503 0.5773503 -0.5773503 0.5773503 0.5773503 0.5773503 -0.5773503 0.5773503 0.5773503 0.5773503 -0.5773503 -0.5773503 -0.5773503 -0.5773503 -0.5773503 0.5773503 -0.5773503 0.5773503 -0.5773503 -0.5773503 0.5773503 0.5773503 0.5773503 -0.5773503 -0.5773503 0.5773503 -0.5773503 0.5773503 0.5773503 0.5773503 -0.5773503 0.5773503 0.5773503 0.5773503</float_array>
          <technique_common>
            <accessor count="504" source="#normals-array-array" stride="3">
              <param type="float" name="X"/>
              <param type="float" name="Y"/>
              <param type="float" name="Z"/>
            </accessor>
          </technique_common>
        </source>
        <source id="colors-array">
          <float_array count="1512" id="colors-array-array">0 0 0 0 0 0 0 0 0 0 0 0 0 0 0 0 0 0 0 0 0 0 0 0 0 0 0 0 0 0 0 0 0 0 0 0 0 0 0 0 0 0 0 0 0 0 0 0 0 0 0 0 0 0 0 0 0 0 0 0 0 0 0 0 0 0 0 0 0 0 0 0 0 0 0 0 0 0 0 0 0 0 0 0 0 0 0 0 0 0 0 0 0 0 0 0 0 0 0 0 0 0 0 0 0 0 0 0 0 0 0 0 0 0 0 0 0 0 0 0 0 0 0 0 0 0 0 0 0 0 0 0 0 0 0 0 0 0 0 0 0 0 0 0 0 0 0 0 0 0 0 0 0 0 0 0 0 0 0 0 0 0 0 0 0 0 0 0 0 0 0 0 0 0 0 0 0 0 0 0 0 0 0 0 0 0 0 0 0 0 0 0 0 0 0 0 0 0 0 0 0 0 0 0 0 0 0 0 0 0 0 0 0 0 0 0 0 0 0 0 0 0 0 0 0 0 0 0 0 0 0 0 0 0 0 0 0 0 0 0 0 0 0 0 0 0 0 0 0 0 0 0 0 0 0 0 0 0 0 0 0 0 0 0 0 0 0 0 0 0 0 0 0 0 0 0 0 0 0 0 0 0 0 0 0 0 0 0 0 0 0 0 0 0 0 0 0 0 0 0 0 0 0 0 0 0 0 0 0 0 0 0 0 0 0 0 0 0 0 0 0 0 0 0 0 0 0 0 0 0 0 0 0 0 0 0 0 0 0 0 0 0 0 0 0 0 0 0 0 0 0 0 0 0 0 0 0 0 0 0 0 0 0 0 0 0 0 0 0 0 0 0 0 0 0 0 0 0 0 0 0 0 0 0 0 0 0 0 0 0 0 0 0 0 0 0 0 0 0 0 0 0 0 0 0 0 0 0 0 0 0 0 0 0 0 0 0 0 0 0 0 0 0 0 0 0 0 0 0 0 0 0 1 1 1 1 1 1 1 1 1 1 1 1 1 1 1 1 1 1 1 1 1 1 1 1 1 1 1 1 1 1 1 1 1 1 1 1 1 1 1 1 1 1 1 1 1 1 1 1 1 1 1 1 1 1 1 1 1 1 1 1 1 1 1 1 1 1 1 1 1 1 1 1 1 1 1 1 1 1 1 1 1 1 1 1 1 1 1 1 1 1 1 1 1 1 1 1 1 1 1 1 1 1 1 1 1 1 1 1 1 1 1 1 1 1 1 1 1 1 1 1 1 1 1 1 1 1 1 1 1 1 1 1 1 1 1 1 1 1 1 1 1 1 1 1 1 1 1 1 1 1 1 1 1 1 1 1 1 1 1 1 1 1 1 1 1 1 1 1 1 1 1 1 1 1 1 1 1 1 1 1 1 1 1 1 1 1 1 1 1 1 1 1 1 1 1 1 1 1 1 1 1 1 1 1 1 1 1 1 1 1 1 1 1 1 1 1 1 1 1 1 1 1 1 1 1 1 1 1 1 1 1 1 1 1 1 1 1 1 1 1 1 1 1 1 1 1 1 1 1 1 1 1 1 1 1 1 1 1 1 1 1 1 1 1 1 1 1 1 1 1 1 1 1 1 1 1 1 1 1 1 1 1 1 1 1 1 1 1 1 1 1 1 1 1 1 1 1 1 1 1 1 1 1 1 1 1 1 1 1 1 1 1 1 1 1 1 1 1 1 1 1 1 1 1 1 1 1 1 1 1 1 1 1 1 1 1 1 1 1 1 1 1 1 1 1 1 1 1 1 1 1 1 1 1 1 1 1 1 1 1 1 1 1 1 1 1 1 1 1 1 1 1 1 1 1 1 1 1 1 1 1 1 1 1 1 1 1 1 1 1 1 1 1 1 1 1 1 1 1 1 1 1 1 1 1 1 1 1 1 1 1 1 1 1 1 1 1 1 1 1 1 1 1 1 1 1 1 1 1 1 1 1 1 1 1 1 1 1 1 1 1 1 1 1 1 1 1 1 1 1 1 1 1 1 1 1 1 1 1 1 1 1 1 1 1 1 1 1 1 1 1 1 1 1 1 1 1 1 1 1 1 1 1 1 1 1 1 1 1 1 1 1 1 1 1 1 1 1 1 1 1 1 1 1 1 1 1 1 1 1 1 1 1 1 1 1 1 1 1 1 1 1 1 1 1 1 1 1 1 1 1 1 1 1 1 1 1 1 1 1 1 1 1 1 1 1 1 1 1 1 1 1 1 1 1 1 1 1 1 1 1 1 1 1 1 1 1 1 1 1 1 1 1 1 1 1 1 1 1 1 1 1 1 1 1 1 1 1 1 1 1 1 1 1 1 1 1 1 1 1 1 1 1 1 1 1 1 1 1 1 1 1 1 1 1 1 1 1 1 1 1 1 1 1 1 1 1 1 1 1 1 1 1 1 1 1 1 1 1 1 1 1 1 1 1 1 1 1 1 1 1 1 1 1 1 1 1 1 1 1 1 1 1 1 1 1 1 1 1 1 1 1 1 1 1 1 1 1 1 1 1 1 1 1 1 1 1 1 1 1 1 1 1 1 1 1 1 1 1 1 1 1 1 1 1 1 1 1 1 1 1 1 1 1 1 1 1 1 1 1 1 1 1 1 1 1 1 1 1 1 1 1 1 1 1 1 1 1 1 1 1 1 1 1 1 1 1 1 1 1 1 1 1 1 1 1 1 1 1 1 1 1 1 1 1 1 1 1 1 1 1 1 1 1 1 1 1 1 1 1 1 1 1 1 1 1 1 1 1 1 1 1 1 1 1 1 1 1 1 1 1 1 1 1 1 1 1 1 1 1 1 1 1 1 1 1 1 1 1 1 1 1 1 1 1 1 1 1 1 1 1 1 1 1 1 1 1 1 1 1 1 1 1 1 1 1 1 1 1 1 1 1 1 1 1 1 1 1 1 1 1 1 1 1 1 1 1 1 1 1 1 1 1 1 1 1 1 1 1 1 1 1 1 1 1 1 1 1 1 1 1 1 1 1 1 1 1 1 1 1 1 1 1 1 1 1 1 1 1 1 1 1 1 1 1 1 1 1 1 1 1 1 1 1 1 1 1 1 1 1 1 1 1 1 1 1 1 1 1 1 1 1 1 1 1 1 1 1 1 1 1 1 1 1 1 1 1 1 1 1 1 1 1 1 1 1 1 1 1 1 1 1 1 1 1 1 1 1 1 1 1 1 1 1 1 1 1 1 1 1 1 1 1 1 1 1 1 1 1 1 1 1 1 1 1 1 1 1 1 1 1 1 1 1 1 1 1 1 1 1 1 1 1 1 1 1 1 1 1 1 1 1 1 1 1 1 1 1 1 1 1 1 1 1 1 1 1 1 1 1 1 1 1 1 1 1 1 1 1 1 1 1 1 1 1 1 1 1 1 1 1 1 1 1 1 1 1 1 1 1</float_array>
          <technique_common>
            <accessor count="504" source="#colors-array-array" stride="3">
              <param type="float" name="R"/>
              <param type="float" name="G"/>
              <param type="float" name="B"/>
            </accessor>
          </technique_common>
        </source>
        <vertices id="verts-array-vertices">
          <input semantic="POSITION" source="#verts-array"/>
        </vertices>
        <triangles count="756" material="material0">
          <input offset="0" semantic="VERTEX" source="#verts-array-vertices"/>
          <input offset="1" semantic="NORMAL" source="#normals-array"/>
          <input offset="2" semantic="COLOR" source="#colors-array"/>
          <p>1 1 1 3 3 3 0 0 0 4 4 4 1 1 1 0 0 0 0 0 0 3 3 3 2 2 2 2 2 2 4 4 4 0 0 0 1 1 1 7 7 7 3 3 3 5 5 5 1 1 1 4 4 4 5 5 5 7 7 7 1 1 1 3 3 3 7 7 7 2 2 2 6 6 6 4 4 4 2 2 2 2 2 2 7 7 7 6 6 6 6 6 6 5 5 5 4 4 4 7 7 7 5 5 5 6 6 6 9 9 9 11 11 11 8 8 8 12 12 12 9 9 9 8 8 8 8 8 8 11 11 11 10 10 10 10 10 10 12 12 12 8 8 8 9 9 9 15 15 15 11 11 11 13 13 13 9 9 9 12 12 12 13 13 13 15 15 15 9 9 9 11 11 11 15 15 15 10 10 10 14 14 14 12 12 12 10 10 10 10 10 10 15 15 15 14 14 14 14 14 14 13 13 13 12 12 12 15 15 15 13 13 13 14 14 14 17 17 17 19 19 19 16 16 16 20 20 20 17 17 17 16 16 16 16 16 16 19 19 19 18 18 18 18 18 18 20 20 20 16 16 16 17 17 17 23 23 23 19 19 19 21 21 21 17 17 17 20 20 20 21 21 21 23 23 23 17 17 17 19 19 19 23 23 23 18 18 18 22 22 22 20 20 20 18 18 18 18 18 18 23 23 23 22 22 22 22 22 22 21 21 21 20 20 20 23 23 23 21 21 21 22 22 22 25 25 25 27 27 27 24 24 24 28 28 28 25 25 25 24 24 24 24 24 24 27 27 27 26 26 26 26 26 26 28 28 28 24 24 24 25 25 25 31 31 31 27 27 27 29 29 29 25 25 25 28 28 28 29 29 29 31 31 31 25 25 25 27 27 27 31 31 31 26 26 26 30 30 30 28 28 28 26 26 26 26 26 26 31 31 31 30 30 30 30 30 30 29 29 29 28 28 28 31 31 31 29 29 29 30 30 30 33 33 33 35 35 35 32 32 32 36 36 36 33 33 33 32 32 32 32 32 32 35 35 35 34 34 34 34 34 34 36 36 36 32 32 32 33 33 33 39 39 39 35 35 35 37 37 37 33 33 33 36 36 36 37 37 37 39 39 39 33 33 33 35 35 35 39 39 39 34 34 34 38 38 38 36 36 36 34 34 34 34 34 34 39 39 39 38 38 38 38 38 38 37 37 37 36 36 36 39 39 39 37 37 37 38 38 38 41 41 41 43 43 43 40 40 40 44 44 44 41 41 41 40 40 40 40 40 40 43 43 43 42 42 42 42 42 42 44 44 44 40 40 40 41 41 41 47 47 47 43 43 43 45 45 45 41 41 41 44 44 44 45 45 45 47 47 47 41 41 41 43 43 43 47 47 47 42 42 42 46 46 46 44 44 44 42 42 42 42 42 42 47 47 47 46 46 46 46 46 46 45 45 45 44 44 44 47 47 47 45 45 45 46 46 46 49 49 49 51 51 51 48 48 48 52 52 52 49 49 49 48 48 48 48 48 48 51 51 51 50 50 50 50 50 50 52 52 52 48 48 48 49 49 49 55 55 55 51 51 51 53 53 53 49 49 49 52 52 52 53 53 53 55 55 55 49 49 49 51 51 51 55 55 55 50 50 50 54 54 54 52 52 52 50 50 50 50 50 50 55 55 55 54 54 54 54 54 54 53 53 53 52 52 52 55 55 55 53 53 53 54 54 54 57 57 57 59 59 59 56 56 56 60 60 60 57 57 57 56 56 56 56 56 56 59 59 59 58 58 58 58 58 58 60 60 60 56 56 56 57 57 57 63 63 63 59 59 59 61 61 61 57 57 57 60 60 60 61 61 61 63 63 63 57 57 57 59 59 59 63 63 63 58 58 58 62 62 62 60 60 60 58 58 58 58 58 58 63 63 63 62 62 62 62 62 62 61 61 61 60 60 60 63 63 63 61 61 61 62 62 62 65 65 65 67 67 67 64 64 64 68 68 68 65 65 65 64 64 64 64 64 64 67 67 67 66 66 66 66 66 66 68 68 68 64 64 64 65 65 65 71 71 71 67 67 67 69 69 69 65 65 65 68 68 68 69 69 69 71 71 71 65 65 65 67 67 67 71 71 71 66 66 66 70 70 70 68 68 68 66 66 66 66 66 66 71 71 71 70 70 70 70 70 70 69 69 69 68 68 68 71 71 71 69 69 69 70 70 70 73 73 73 75 75 75 72 72 72 76 76 76 73 73 73 72 72 72 72 72 72 75 75 75 74 74 74 74 74 74 76 76 76 72 72 72 73 73 73 79 79 79 75 75 75 77 77 77 73 73 73 76 76 76 77 77 77 79 79 79 73 73 73 75 75 75 79 79 79 74 74 74 78 78 78 76 76 76 74 74 74 74 74 74 79 79 79 78 78 78 78 78 78 77 77 77 76 76 76 79 79 79 77 77 77 78 78 78 81 81 81 83 83 83 80 80 80 84 84 84 81 81 81 80 80 80 80 80 80 83 83 83 82 82 82 82 82 82 84 84 84 80 80 80 81 81 81 87 87 87 83 83 83 85 85 85 81 81 81 84 84 84 85 85 85 87 87 87 81 81 81 83 83 83 87 87 87 82 82 82 86 86 86 84 84 84 82 82 82 82 82 82 87 87 87 86 86 86 86 86 86 85 85 85 84 84 84 87 87 87 85 85 85 86 86 86 89 89 89 91 91 91 88 88 88 92 92 92 89 89 89 88 88 88 88 88 88 91 91 91 90 90 90 90 90 90 92 92 92 88 88 88 89 89 89 95 95 95 91 91 91 93 93 93 89 89 89 92 92 92 93 93 93 95 95 95 89 89 89 91 91 91 95 95 95 90 90 90 94 94 94 92 92 92 90 90 90 90 90 90 95 95 95 94 94 94 94 94 94 93 93 93 92 92 92 95 95 95 93 93 93 94 94 94 97 97 97 99 99 99 96 96 96 100 100 100 97 97 97 96 96 96 96 96 96 99 99 99 98 98 98 98 98 98 100 100 100 96 96 96 97 97 97 103 103 103 99 99 99 101 101 101 97 97 97 100 100 100 101 101 101 103 103 103 97 97 97 99 99 99 103 103 103 98 98 98 102 102 102 100 100 100 98 98 98 98 98 98 103 103 103 102 102 102 102 102 102 101 101 101 100 100 100 103 103 103 101 101 101 102 102 102 105 105 105 107 107 107 104 104 104 108 108 108 105 105 105 104 104 104 104 104 104 107 107 107 106 106 106 106 106 106 108 108 108 104 104 104 105 105 105 111 111 111 107 107 107 109 109 109 105 105 105 108 108 108 109 109 109 111 111 111 105 105 105 107 107 107 111 111 111 106 106 106 110 110 110 108 108 108 106 106 106 106 106 106 111 111 111 110 110 110 110 110 110 109 109 109 108 108 108 111 111 111 109 109 109 110 110 110 113 113 113 115 115 115 112 112 112 116 116 116 113 113 113 112 112 112 112 112 112 115 115 115 114 114 114 114 114 114 116 116 116 112 112 112 113 113 113 119 119 119 115 115 115 117 117 117 113 113 113 116 116 116 117 117 117 119 119 119 113 113 113 115 115 115 119 119 119 114 114 114 118 118 118 116 116 116 114 114 114 114 114 114 119 119 119 118 118 118 118 118 118 117 117 117 116 116 116 119 119 119 117 117 117 118 118 118 121 121 121 123 123 123 120 120 120 124 124 124 121 121 121 120 120 120 120 120 120 123 123 123 122 122 122 122 122 122 124 124 124 120 120 120 121 121 121 127 127 127 123 123 123 125 125 125 121 121 121 124 124 124 125 125 125 127 127 127 121 121 121 123 123 123 127 127 127 122 122 122 126 126 126 124 124 124 122 122 122 122 122 122 127 127 127 126 126 126 126 126 126 125 125 125 124 124 124 127 127 127 125 125 125 126 126 126 129 129 129 131 131 131 128 128 128 132 132 132 129 129 129 128 128 128 128 128 128 131 131 131 130 130 130 130 130 130 132 132 132 128 128 128 129 129 129 135 135 135 131 131 131 133 133 133 129 129 129 132 132 132 133 133 133 135 135 135 129 129 129 131 131 131 135 135 135 130 130 130 134 134 134 132 132 132 130 130 130 130 130 130 135 135 135 134 134 134 134 134 134 133 133 133 132 132 132 135 135 135 133 133 133 134 134 134 137 137 137 139 139 139 136 136 136 140 140 140 137 137 137 136 136 136 136 136 136 139 139 139 138 138 138 138 138 138 140 140 140 136 136 136 137 137 137 143 143 143 139 139 139 141 141 141 137 137 137 140 140 140 141 141 141 143 143 143 137 137 137 139 139 139 143 143 143 138 138 138 142 142 142 140 140 140 138 138 138 138 138 138 143 143 143 142 142 142 142 142 142 141 141 141 140 140 140 143 143 143 141 141 141 142 142 142 145 145 145 147 147 147 144 144 144 148 148 148 145 145 145 144 144 144 144 144 144 147 147 147 146 146 146 146 146 146 148 148 148 144 144 144 145 145 145 151 151 151 147 147 147 149 149 149 145 145 145 148 148 148 149 149 149 151 151 151 145 145 145 147 147 147 151 151 151 146 146 146 150 150 150 148 148 148 146 146 146 146 146 146 151 151 151 150 150 150 150 150 150 149 149 149 148 148 148 151 151 151 149 149 149 150 150 150 153 153 153 155 155 155 152 152 152 156 156 156 153 153 153 152 152 152 152 152 152 155 155 155 154 154 154 154 154 154 156 156 156 152 152 152 153 153 153 159 159 159 155 155 155 157 157 157 153 153 153 156 156 156 157 157 157 159 159 159 153 153 153 155 155 155 159 159 159 154 154 154 158 158 158 156 156 156 154 154 154 154 154 154 159 159 159 158 158 158 158 158 158 157 157 157 156 156 156 159 159 159 157 157 157 158 158 158 161 161 161 163 163 163 160 160 160 164 164 164 161 161 161 160 160 160 160 160 160 163 163 163 162 162 162 162 162 162 164 164 164 160 160 160 161 161 161 167 167 167 163 163 163 165 165 165 161 161 161 164 164 164 165 165 165 167 167 167 161 161 161 163 163 163 167 167 167 162 162 162 166 166 166 164 164 164 162 162 162 162 162 162 167 167 167 166 166 166 166 166 166 165 165 165 164 164 164 167 167 167 165 165 165 166 166 166 169 169 169 171 171 171 168 168 168 172 172 172 169 169 169 168 168 168 168 168 168 171 171 171 170 170 170 170 170 170 172 172 172 168 168 168 169 169 169 175 175 175 171 171 171 173 173 173 169 169 169 172 172 172 173 173 173 175 175 175 169 169 169 171 171 171 175 175 175 170 170 170 174 174 174 172 172 172 170 170 170 170 170 170 175 175 175 174 174 174 174 174 174 173 173 173 172 172 172 175 175 175 173 173 173 174 174 174 177 177 177 179 179 179 176 176 176 180 180 180 177 177 177 176 176 176 176 176 176 179 179 179 178 178 178 178 178 178 180 180 180 176 176 176 177 177 177 183 183 183 179 179 179 181 181 181 177 177 177 180 180 180 181 181 181 183 183 183 177 177 177 179 179 179 183 183 183 178 178 178 182 182 182 180 180 180 178 178 178 178 178 178 183 183 183 182 182 182 182 182 182 181 181 181 180 180 180 183 183 183 181 181 181 182 182 182 185 185 185 187 187 187 184 184 184 188 188 188 185 185 185 184 184 184 184 184 184 187 187 187 186 186 186 186 186 186 188 188 188 184 184 184 185 185 185 191 191 191 187 187 187 189 189 189 185 185 185 188 188 188 189 189 189 191 191 191 185 185 185 187 187 187 191 191 191 186 186 186 190 190 190 188 188 188 186 186 186 186 186 186 191 191 191 190 190 190 190 190 190 189 189 189 188 188 188 191 191 191 189 189 189 190 190 190 193 193 193 195 195 195 192 192 192 196 196 196 193 193 193 192 192 192 192 192 192 195 195 195 194 194 194 194 194 194 196 196 196 192 192 192 193 193 193 199 199 199 195 195 195 197 197 197 193 193 193 196 196 196 197 197 197 199 199 199 193 193 193 195 195 195 199 199 199 194 194 194 198 198 198 196 196 196 194 194 194 194 194 194 199 199 199 198 198 198 198 198 198 197 197 197 196 196 196 199 199 199 197 197 197 198 198 198 201 201 201 203 203 203 200 200 200 204 204 204 201 201 201 200 200 200 200 200 200 203 203 203 202 202 202 202 202 202 204 204 204 200 200 200 201 201 201 207 207 207 203 203 203 205 205 205 201 201 201 204 204 204 205 205 205 207 207 207 201 201 201 203 203 203 207 207 207 202 202 202 206 206 206 204 204 204 202 202 202 202 202 202 207 207 207 206 206 206 206 206 206 205 205 205 204 204 204 207 207 207 205 205 205 206 206 206 209 209 209 211 211 211 208 208 208 212 212 212 209 209 209 208 208 208 208 208 208 211 211 211 210 210 210 210 210 210 212 212 212 208 208 208 209 209 209 215 215 215 211 211 211 213 213 213 209 209 209 212 212 212 213 213 213 215 215 215 209 209 209 211 211 211 215 215 215 210 210 210 214 214 214 212 212 212 210 210 210 210 210 210 215 215 215 214 214 214 214 214 214 213 213 213 212 212 212 215 215 215 213 213 213 214 214 214 217 217 217 219 219 219 216 216 216 220 220 220 217 217 217 216 216 216 216 216 216 219 219 219 218 218 218 218 218 218 220 220 220 216 216 216 217 217 217 223 223 223 219 219 219 221 221 221 217 217 217 220 220 220 221 221 221 223 223 223 217 217 217 219 219 219 223 223 223 218 218 218 222 222 222 220 220 220 218 218 218 218 218 218 223 223 223 222 222 222 222 222 222 221 221 221 220 220 220 223 223 223 221 221 221 222 222 222 225 225 225 227 227 227 224 224 224 228 228 228 225 225 225 224 224 224 224 224 224 227 227 227 226 226 226 226 226 226 228 228 228 224 224 224 225 225 225 231 231 231 227 227 227 229 229 229 225 225 225 228 228 228 229 229 229 231 231 231 225 225 225 227 227 227 231 231 231 226 226 226 230 230 230 228 228 228 226 226 226 226 226 226 231 231 231 230 230 230 230 230 230 229 229 229 228 228 228 231 231 231 229 229 229 230 230 230 233 233 233 235 235 235 232 232 232 236 236 236 233 233 233 232 232 232 232 232 232 235 235 235 234 234 234 234 234 234 236 236 236 232 232 232 233 233 233 239 239 239 235 235 235 237 237 237 233 233 233 236 236 236 237 237 237 239 239 239 233 233 233 235 235 235 239 239 239 234 234 234 238 238 238 236 236 236 234 234 234 234 234 234 239 239 239 238 238 238 238 238 238 237 237 237 236 236 236 239 239 239 237 237 237 238 238 238 241 241 241 243 243 243 240 240 240 244 244 244 241 241 241 240 240 240 240 240 240 243 243 243 242 242 242 242 242 242 244 244 244 240 240 240 241 241 241 247 247 247 243 243 243 245 245 245 241 241 241 244 244 244 245 245 245 247 247 247 241 241 241 243 243 243 247 247 247 242 242 242 246 246 246 244 244 244 242 242 242 242 242 242 247 247 247 246 246 246 246 246 246 245 245 245 244 244 244 247 247 247 245 245 245 246 246 246 249 249 249 251 251 251 248 248 248 252 252 252 249 249 249 248 248 248 248 248 248 251 251 251 250 250 250 250 250 250 252 252 252 248 248 248 249 249 249 255 255 255 251 251 251 253 253 253 249 249 249 252 252 252 253 253 253 255 255 255 249 249 249 251 251 251 255 255 255 250 250 250 254 254 254 252 252 252 250 250 250 250 250 250 255 255 255 254 254 254 254 254 254 253 253 253 252 252 252 255 255 255 253 253 253 254 254 254 257 257 257 259 259 259 256 256 256 260 260 260 257 257 257 256 256 256 256 256 256 259 259 259 258 258 258 258 258 258 260 260 260 256 256 256 257 257 257 263 263 263 259 259 259 261 261 261 257 257 257 260 260 260 261 261 261 263 263 263 257 257 257 259 259 259 263 263 263 258 258 258 262 262 262 260 260 260 258 258 258 258 258 258 263 263 263 262 262 262 262 262 262 261 261 261 260 260 260 263 263 263 261 261 261 262 262 262 265 265 265 267 267 267 264 264 264 268 268 268 265 265 265 264 264 264 264 264 264 267 267 267 266 266 266 266 266 266 268 268 268 264 264 264 265 265 265 271 271 271 267 267 267 269 269 269 265 265 265 268 268 268 269 269 269 271 271 271 265 265 265 267 267 267 271 271 271 266 266 266 270 270 270 268 268 268 266 266 266 266 266 266 271 271 271 270 270 270 270 270 270 269 269 269 268 268 268 271 271 271 269 269 269 270 270 270 273 273 273 275 275 275 272 272 272 276 276 276 273 273 273 272 272 272 272 272 272 275 275 275 274 274 274 274 274 274 276 276 276 272 272 272 273 273 273 279 279 279 275 275 275 277 277 277 273 273 273 276 276 276 277 277 277 279 279 279 273 273 273 275 275 275 279 279 279 274 274 274 278 278 278 276 276 276 274 274 274 274 274 274 279 279 279 278 278 278 278 278 278 277 277 277 276 276 276 279 279 279 277 277 277 278 278 278 281 281 281 283 283 283 280 280 280 284 284 284 281 281 281 280 280 280 280 280 280 283 283 283 282 282 282 282 282 282 284 284 284 280 280 280 281 281 281 287 287 287 283 283 283 285 285 285 281 281 281 284 284 284 285 285 285 287 287 287 281 281 281 283 283 283 287 287 287 282 282 282 286 286 286 284 284 284 282 282 282 282 282 282 287 287 287 286 286 286 286 286 286 285 285 285 284 284 284 287 287 287 285 285 285 286 286 286 289 289 289 291 291 291 288 288 288 292 292 292 289 289 289 288 288 288 288 288 288 291 291 291 290 290 290 290 290 290 292 292 292 288 288 288 289 289 289 295 295 295 291 291 291 293 293 293 289 289 289 292 292 292 293 293 293 295 295 295 289 289 289 291 291 291 295 295 295 290 290 290 294 294 294 292 292 292 290 290 290 290 290 290 295 295 295 294 294 294 294 294 294 293 293 293 292 292 292 295 295 295 293 293 293 294 294 294 297 297 297 299 299 299 296 296 296 300 300 300 297 297 297 296 296 296 296 296 296 299 299 299 298 298 298 298 298 298 300 300 300 296 296 296 297 297 297 303 303 303 299 299 299 301 301 301 297 297 297 300 300 300 301 301 301 303 303 303 297 297 297 299 299 299 303 303 303 298 298 298 302 302 302 300 300 300 298 298 298 298 298 298 303 303 303 302 302 302 302 302 302 301 301 301 300 300 300 303 303 303 301 301 301 302 302 302 305 305 305 307 307 307 304 304 304 308 308 308 305 305 305 304 304 304 304 304 304 307 307 307 306 306 306 306 306 306 308 308 308 304 304 304 305 305 305 311 311 311 307 307 307 309 309 309 305 305 305 308 308 308 309 309 309 311 311 311 305 305 305 307 307 307 311 311 311 306 306 306 310 310 310 308 308 308 306 306 306 306 306 306 311 311 311 310 310 310 310 310 310 309 309 309 308 308 308 311 311 311 309 309 309 310 310 310 313 313 313 315 315 315 312 312 312 316 316 316 313 313 313 312 312 312 312 312 312 315 315 315 314 314 314 314 314 314 316 316 316 312 312 312 313 313 313 319 319 319 315 315 315 317 317 317 313 313 313 316 316 316 317 317 317 319 319 319 313 313 313 315 315 315 319 319 319 314 314 314 318 318 318 316 316 316 314 314 314 314 314 314 319 319 319 318 318 318 318 318 318 317 317 317 316 316 316 319 319 319 317 317 317 318 318 318 321 321 321 323 323 323 320 320 320 324 324 324 321 321 321 320 320 320 320 320 320 323 323 323 322 322 322 322 322 322 324 324 324 320 320 320 321 321 321 327 327 327 323 323 323 325 325 325 321 321 321 324 324 324 325 325 325 327 327 327 321 321 321 323 323 323 327 327 327 322 322 322 326 326 326 324 324 324 322 322 322 322 322 322 327 327 327 326 326 326 326 326 326 325 325 325 324 324 324 327 327 327 325 325 325 326 326 326 329 329 329 331 331 331 328 328 328 332 332 332 329 329 329 328 328 328 328 328 328 331 331 331 330 330 330 330 330 330 332 332 332 328 328 328 329 329 329 335 335 335 331 331 331 333 333 333 329 329 329 332 332 332 333 333 333 335 335 335 329 329 329 331 331 331 335 335 335 330 330 330 334 334 334 332 332 332 330 330 330 330 330 330 335 335 335 334 334 334 334 334 334 333 333 333 332 332 332 335 335 335 333 333 333 334 334 334 337 337 337 339 339 339 336 336 336 340 340 340 337 337 337 336 336 336 336 336 336 339 339 339 338 338 338 338 338 338 340 340 340 336 336 336 337 337 337 343 343 343 339 339 339 341 341 341 337 337 337 340 340 340 341 341 341 343 343 343 337 337 337 339 339 339 343 343 343 338 338 338 342 342 342 340 340 340 338 338 338 338 338 338 343 343 343 342 342 342 342 342 342 341 341 341 340 340 340 343 343 343 341 341 341 342 342 342 345 345 345 347 347 347 344 344 344 348 348 348 345 345 345 344 344 344 344 344 344 347 347 347 346 346 346 346 346 346 348 348 348 344 344 344 345 345 345 351 351 351 347 347 347 349 349 349 345 345 345 348 348 348 349 349 349 351 351 351 345 345 345 347 347 347 351 351 351 346 346 346 350 350 350 348 348 348 346 346 346 346 346 346 351 351 351 350 350 350 350 350 350 349 349 349 348 348 348 351 351 351 349 349 349 350 350 350 353 353 353 355 355 355 352 352 352 356 356 356 353 353 353 352 352 352 352 352 352 355 355 355 354 354 354 354 354 354 356 356 356 352 352 352 353 353 353 359 359 359 355 355 355 357 357 357 353 353 353 356 356 356 357 357 357 359 359 359 353 353 353 355 355 355 359 359 359 354 354 354 358 358 358 356 356 356 354 354 354 354 354 354 359 359 359 358 358 358 358 358 358 357 357 357 356 356 356 359 359 359 357 357 357 358 358 358 361 361 361 363 363 363 360 360 360 364 364 364 361 361 361 360 360 360 360 360 360 363 363 363 362 362 362 362 362 362 364 364 364 360 360 360 361 361 361 367 367 367 363 363 363 365 365 365 361 361 361 364 364 364 365 365 365 367 367 367 361 361 361 363 363 363 367 367 367 362 362 362 366 366 366 364 364 364 362 362 362 362 362 362 367 367 367 366 366 366 366 366 366 365 365 365 364 364 364 367 367 367 365 365 365 366 366 366 369 369 369 371 371 371 368 368 368 372 372 372 369 369 369 368 368 368 368 368 368 371 371 371 370 370 370 370 370 370 372 372 372 368 368 368 369 369 369 375 375 375 371 371 371 373 373 373 369 369 369 372 372 372 373 373 373 375 375 375 369 369 369 371 371 371 375 375 375 370 370 370 374 374 374 372 372 372 370 370 370 370 370 370 375 375 375 374 374 374 374 374 374 373 373 373 372 372 372 375 375 375 373 373 373 374 374 374 377 377 377 379 379 379 376 376 376 380 380 380 377 377 377 376 376 376 376 376 376 379 379 379 378 378 378 378 378 378 380 380 380 376 376 376 377 377 377 383 383 383 379 379 379 381 381 381 377 377 377 380 380 380 381 381 381 383 383 383 377 377 377 379 379 379 383 383 383 378 378 378 382 382 382 380 380 380 378 378 378 378 378 378 383 383 383 382 382 382 382 382 382 381 381 381 380 380 380 383 383 383 381 381 381 382 382 382 385 385 385 387 387 387 384 384 384 388 388 388 385 385 385 384 384 384 384 384 384 387 387 387 386 386 386 386 386 386 388 388 388 384 384 384 385 385 385 391 391 391 387 387 387 389 389 389 385 385 385 388 388 388 389 389 389 391 391 391 385 385 385 387 387 387 391 391 391 386 386 386 390 390 390 388 388 388 386 386 386 386 386 386 391 391 391 390 390 390 390 390 390 389 389 389 388 388 388 391 391 391 389 389 389 390 390 390 393 393 393 395 395 395 392 392 392 396 396 396 393 393 393 392 392 392 392 392 392 395 395 395 394 394 394 394 394 394 396 396 396 392 392 392 393 393 393 399 399 399 395 395 395 397 397 397 393 393 393 396 396 396 397 397 397 399 399 399 393 393 393 395 395 395 399 399 399 394 394 394 398 398 398 396 396 396 394 394 394 394 394 394 399 399 399 398 398 398 398 398 398 397 397 397 396 396 396 399 399 399 397 397 397 398 398 398 401 401 401 403 403 403 400 400 400 404 404 404 401 401 401 400 400 400 400 400 400 403 403 403 402 402 402 402 402 402 404 404 404 400 400 400 401 401 401 407 407 407 403 403 403 405 405 405 401 401 401 404 404 404 405 405 405 407 407 407 401 401 401 403 403 403 407 407 407 402 402 402 406 406 406 404 404 404 402 402 402 402 402 402 407 407 407 406 406 406 406 406 406 405 405 405 404 404 404 407 407 407 405 405 405 406 406 406 409 409 409 411 411 411 408 408 408 412 412 412 409 409 409 408 408 408 408 408 408 411 411 411 410 410 410 410 410 410 412 412 412 408 408 408 409 409 409 415 415 415 411 411 411 413 413 413 409 409 409 412 412 412 413 413 413 415 415 415 409 409 409 411 411 411 415 415 415 410 410 410 414 414 414 412 412 412 410 410 410 410 410 410 415 415 415 414 414 414 414 414 414 413 413 413 412 412 412 415 415 415 413 413 413 414 414 414 417 417 417 419 419 419 416 416 416 420 420 420 417 417 417 416 416 416 416 416 416 419 419 419 418 418 418 418 418 418 420 420 420 416 416 416 417 417 417 423 423 423 419 419 419 421 421 421 417 417 417 420 420 420 421 421 421 423 423 423 417 417 417 419 419 419 423 423 423 418 418 418 422 422 422 420 420 420 418 418 418 418 418 418 423 423 423 422 422 422 422 422 422 421 421 421 420 420 420 423 423 423 421 421 421 422 422 422 425 425 425 427 427 427 424 424 424 428 428 428 425 425 425 424 424 424 424 424 424 427 427 427 426 426 426 426 426 426 428 428 428 424 424 424 425 425 425 431 431 431 427 427 427 429 429 429 425 425 425 428 428 428 429 429 429 431 431 431 425 425 425 427 427 427 431 431 431 426 426 426 430 430 430 428 428 428 426 426 426 426 426 426 431 431 431 430 430 430 430 430 430 429 429 429 428 428 428 431 431 431 429 429 429 430 430 430 433 433 433 435 435 435 432 432 432 436 436 436 433 433 433 432 432 432 432 432 432 435 435 435 434 434 434 434 434 434 436 436 436 432 432 432 433 433 433 439 439 439 435 435 435 437 437 437 433 433 433 436 436 436 437 437 437 439 439 439 433 433 433 435 435 435 439 439 439 434 434 434 438 438 438 436 436 436 434 434 434 434 434 434 439 439 439 438 438 438 438 438 438 437 437 437 436 436 436 439 439 439 437 437 437 438 438 438 441 441 441 443 443 443 440 440 440 444 444 444 441 441 441 440 440 440 440 440 440 443 443 443 442 442 442 442 442 442 444 444 444 440 440 440 441 441 441 447 447 447 443 443 443 445 445 445 441 441 441 444 444 444 445 445 445 447 447 447 441 441 441 443 443 443 447 447 447 442 442 442 446 446 446 444 444 444 442 442 442 442 442 442 447 447 447 446 446 446 446 446 446 445 445 445 444 444 444 447 447 447 445 445 445 446 446 446 449 449 449 451 451 451 448 448 448 452 452 452 449 449 449 448 448 448 448 448 448 451 451 451 450 450 450 450 450 450 452 452 452 448 448 448 449 449 449 455 455 455 451 451 451 453 453 453 449 449 449 452 452 452 453 453 453 455 455 455 449 449 449 451 451 451 455 455 455 450 450 450 454 454 454 452 452 452 450 450 450 450 450 450 455 455 455 454 454 454 454 454 454 453 453 453 452 452 452 455 455 455 453 453 453 454 454 454 457 457 457 459 459 459 456 456 456 460 460 460 457 457 457 456 456 456 456 456 456 459 459 459 458 458 458 458 458 458 460 460 460 456 456 456 457 457 457 463 463 463 459 459 459 461 461 461 457 457 457 460 460 460 461 461 461 463 463 463 457 457 457 459 459 459 463 463 463 458 458 458 462 462 462 460 460 460 458 458 458 458 458 458 463 463 463 462 462 462 462 462 462 461 461 461 460 460 460 463 463 463 461 461 461 462 462 462 465 465 465 467 467 467 464 464 464 468 468 468 465 465 465 464 464 464 464 464 464 467 467 467 466 466 466 466 466 466 468 468 468 464 464 464 465 465 465 471 471 471 467 467 467 469 469 469 465 465 465 468 468 468 469 469 469 471 471 471 465 465 465 467 467 467 471 471 471 466 466 466 470 470 470 468 468 468 466 466 466 466 466 466 471 471 471 470 470 470 470 470 470 469 469 469 468 468 468 471 471 471 469 469 469 470 470 470 473 473 473 475 475 475 472 472 472 476 476 476 473 473 473 472 472 472 472 472 472 475 475 475 474 474 474 474 474 474 476 476 476 472 472 472 473 473 473 479 479 479 475 475 475 477 477 477 473 473 473 476 476 476 477 477 477 479 479 479 473 473 473 475 475 475 479 479 479 474 474 474 478 478 478 476 476 476 474 474 474 474 474 474 479 479 479 478 478 478 478 478 478 477 477 477 476 476 476 479 479 479 477 477 477 478 478 478 481 481 481 483 483 483 480 480 480 484 484 484 481 481 481 480 480 480 480 480 480 483 483 483 482 482 482 482 482 482 484 484 484 480 480 480 481 481 481 487 487 487 483 483 483 485 485 485 481 481 481 484 484 484 485 485 485 487 487 487 481 481 481 483 483 483 487 487 487 482 482 482 486 486 486 484 484 484 482 482 482 482 482 482 487 487 487 486 486 486 486 486 486 485 485 485 484 484 484 487 487 487 485 485 485 486 486 486 489 489 489 491 491 491 488 488 488 492 492 492 489 489 489 488 488 488 488 488 488 491 491 491 490 490 490 490 490 490 492 492 492 488 488 488 489 489 489 495 495 495 491 491 491 493 493 493 489 489 489 492 492 492 493 493 493 495 495 495 489 489 489 491 491 491 495 495 495 490 490 490 494 494 494 492 492 492 490 490 490 490 490 490 495 495 495 494 494 494 494 494 494 493 493 493 492 492 492 495 495 495 493 493 493 494 494 494 497 497 497 499 499 499 496 496 496 500 500 500 497 497 497 496 496 496 496 496 496 499 499 499 498 498 498 498 498 498 500 500 500 496 496 496 497 497 497 503 503 503 499 499 499 501 501 501 497 497 497 500 500 500 501 501 501 503 503 503 497 497 497 499 499 499 503 503 503 498 498 498 502 502 502 500 500 500 498 498 498 498 498 498 503 503 503 502 502 502 502 502 502 501 501 501 500 500 500 503 503 503 501 501 501 502 502 502</p>
        </triangles>
      </mesh>
    </geometry>
  </library_geometries>
  <library_materials>
    <material id="7bf80f48bdc54c62ab401a23b5aca39d" name="defaultmaterial">
      <instance_effect url="#1964b9d2c7b542afb449bc9ef1d330f8"/>
    </material>
  </library_materials>
  <library_visual_scenes>
    <visual_scene id="scene">
      <node id="node0" name="node0">
        <instance_geometry url="#bbf2c12b379c4b408cf9da1fe60316d3">
          <bind_material>
            <technique_common>
              <instance_material symbol="material0" target="#7bf80f48bdc54c62ab401a23b5aca39d"/>
            </technique_common>
          </bind_material>
        </instance_geometry>
      </node>
    </visual_scene>
  </library_visual_scenes>
  <scene>
    <instance_visual_scene url="#scene"/>
  </scene>
</COLLADA>
